<?xml version="1.0" encoding="utf-8"?>
<!-- Generator: Adobe Illustrator 17.0.0, SVG Export Plug-In . SVG Version: 6.00 Build 0)  -->
<!DOCTYPE svg PUBLIC "-//W3C//DTD SVG 1.1//EN" "http://www.w3.org/Graphics/SVG/1.1/DTD/svg11.dtd">
<svg version="1.1" id="Capa_1" xmlns="http://www.w3.org/2000/svg" xmlns:xlink="http://www.w3.org/1999/xlink" x="0px" y="0px"
	 width="64px" height="64px" viewBox="0 0 64 64" enable-background="new 0 0 64 64" xml:space="preserve">
<g>
	<path d="M30.661,6.648c-9.517,0-17.231,7.714-17.231,17.231c0,4.104,1.443,7.867,3.841,10.825c0.773,0.952,2.066,2.451,2.74,3.476
		c3.881,5.896,8.86,14.459,10.311,21.486c0.249,1.2,0.549,1.221,0.872,0.039c1.035-3.789,3.719-12.068,9.262-20.731
		c0.661-1.033,2.001-2.479,2.833-3.379c1.205-1.305,2.208-2.799,2.97-4.428c1.039-2.222,1.633-4.682,1.633-7.286
		C47.892,14.363,40.178,6.648,30.661,6.648z M30.661,33.189c-5.312,0-9.618-4.306-9.618-9.618c0-5.311,4.306-9.617,9.618-9.617
		c5.312,0,9.618,4.306,9.618,9.617C40.279,28.883,35.973,33.189,30.661,33.189z"/>
	<circle cx="30.661" cy="23.231" r="4"/>
</g>
</svg>
