<svg width="78" height="93" viewBox="0 0 78 93" xmlns="http://www.w3.org/2000/svg" xmlns:svg="http://www.w3.org/2000/svg">
 <g>
  <title>Layer 1</title>
  <g id="svg_1">
   <path id="svg_2" fill="#225ea8" d="m71.10126,0.44124l-33.44801,0c-3.35899,0 -6.08099,2.723 -6.08099,6.081l0,4.865c0,3.359 2.723,6.081 6.08099,6.081l33.44801,0c3.35899,0 6.08199,-2.723 6.08199,-6.081l0,-4.865c0,-3.358 -2.723,-6.081 -6.08199,-6.081z"/>
   <path id="svg_3" fill="#225ea8" d="m74.75025,21.90825l-40.745,0c-1.344,0 -3.058,0.892 -3.884,1.951c-2.125,2.723 -6.387,7.715 -11.481,11.161c-1.113,0.753 -3.045,1.791 -4.05,2.682c-3.854,3.419 -3.829,8.478 -3.399,11.428c0.194,1.329 1.542,2.009 2.807,1.557l15.284,-5.458c1.265,-0.452 2.291,0.271 2.291,1.614l0,13.79501l0,5.14999l0,20.177c0,3.708 3.411,6.71301 7.619,6.71301s7.619,-3.005 7.619,-6.71301l0,-13.98801l21.887,-3.38599c1.328,-0.20499 3.22701,-1.085 4.242,-1.965l2.405,-2.084c1.01501,-0.88 1.83801,-2.682 1.83801,-4.026l0,-36.176c0,-1.343 -1.089,-2.432 -2.433,-2.432l-0.00002,0z"/>
  </g>
 </g>
</svg>