<?xml version="1.0" encoding="UTF-8" standalone="no"?>
<!-- Created with Inkscape (http://www.inkscape.org/) -->

<svg
   xmlns:dc="http://purl.org/dc/elements/1.1/"
   xmlns:cc="http://creativecommons.org/ns#"
   xmlns:rdf="http://www.w3.org/1999/02/22-rdf-syntax-ns#"
   xmlns:svg="http://www.w3.org/2000/svg"
   xmlns="http://www.w3.org/2000/svg"
   xmlns:sodipodi="http://sodipodi.sourceforge.net/DTD/sodipodi-0.dtd"
   xmlns:inkscape="http://www.inkscape.org/namespaces/inkscape"
   width="744.09448819"
   height="1052.3622047"
   id="svg2"
   version="1.1"
   inkscape:version="0.48.2 r9819"
   sodipodi:docname="nearby.svg">
  <defs
     id="defs4">
    <inkscape:perspective
       sodipodi:type="inkscape:persp3d"
       inkscape:vp_x="0 : 526.18109 : 1"
       inkscape:vp_y="0 : 1000 : 0"
       inkscape:vp_z="744.09448 : 526.18109 : 1"
       inkscape:persp3d-origin="372.04724 : 350.78739 : 1"
       id="perspective3056" />
  </defs>
  <sodipodi:namedview
     id="base"
     pagecolor="#ffffff"
     bordercolor="#666666"
     borderopacity="1.0"
     inkscape:pageopacity="0.0"
     inkscape:pageshadow="2"
     inkscape:zoom="0.53740115"
     inkscape:cx="150.46199"
     inkscape:cy="822.72043"
     inkscape:document-units="px"
     inkscape:current-layer="layer1"
     showgrid="false"
     inkscape:window-width="1280"
     inkscape:window-height="752"
     inkscape:window-x="0"
     inkscape:window-y="0"
     inkscape:window-maximized="1"
     inkscape:snap-nodes="true"
     inkscape:object-paths="true" />
  <metadata
     id="metadata7">
    <rdf:RDF>
      <cc:Work
         rdf:about="">
        <dc:format>image/svg+xml</dc:format>
        <dc:type
           rdf:resource="http://purl.org/dc/dcmitype/StillImage" />
        <dc:title></dc:title>
      </cc:Work>
    </rdf:RDF>
  </metadata>
  <g
     inkscape:label="Layer 1"
     inkscape:groupmode="layer"
     id="layer1">
    <path
       style="fill:#ff00ff;fill-rule:evenodd;stroke:none;stroke-width:1px;stroke-linecap:butt;stroke-linejoin:miter;stroke-opacity:1"
       d="M 182.84375 210.75 L 182.84375 255.21875 L 183.03125 255.21875 C 183.62004 260.13291 191.07397 264.03125 200.21875 264.03125 C 209.36353 264.03125 216.81746 260.13291 217.40625 255.21875 L 217.5 255.21875 L 217.5 210.75 L 182.84375 210.75 z "
       id="path3033" />
    <path
       style="fill:#ff00ff;fill-rule:evenodd;stroke:none"
       d="m 123.75534,210.74166 0,44.46875 0.0937,0 c 0.58849,4.91507 8.04272,8.8125 17.1875,8.8125 9.14478,0 16.62794,-3.89743 17.21875,-8.8125 l 0.15625,0 0,-44.46875 -34.65625,0 z"
       id="rect3884"
       inkscape:connector-curvature="0" />
    <path
       style="fill:#ff00ff;fill-rule:evenodd;stroke:none"
       d="m 170.625,188.5 c -25.89761,0 -46.875,9.80885 -46.875,21.90625 0,10.268 14.76899,11.68227 35.0625,11.875 -0.0104,-0.10145 -0.40096,-0.0312 -0.40096,-0.13393 0,-3.28725 5.75407,-6.11607 12.40096,-6.11607 6.64689,0 12.03125,2.65025 12.03125,5.9375 0,0.0926 -0.0228,0.18973 -0.0312,0.28125 19.85696,-0.24445 34.71875,-1.80083 34.71875,-11.84375 0,-12.0974 -21.00863,-21.90625 -46.90625,-21.90625 z"
       id="path3054"
       inkscape:connector-curvature="0"
       sodipodi:nodetypes="sscssscss" />
    <path
       sodipodi:type="arc"
       style="fill:#ff00ff;fill-opacity:0;stroke:none"
       id="path3915"
       sodipodi:cx="107.41071"
       sodipodi:cy="212.36218"
       sodipodi:rx="5.8035712"
       sodipodi:ry="4.1071429"
       d="m 113.21428,212.36218 a 5.8035712,4.1071429 0 1 1 -11.60714,0 5.8035712,4.1071429 0 1 1 11.60714,0 z" />
    <path
       sodipodi:type="arc"
       style="fill:#ff00ff;fill-opacity:0;stroke:none"
       id="path3917"
       sodipodi:cx="102.85714"
       sodipodi:cy="218.79076"
       sodipodi:rx="6.6071429"
       sodipodi:ry="3.3928571"
       d="m 109.46428,218.79076 a 6.6071429,3.3928571 0 1 1 -13.214283,0 6.6071429,3.3928571 0 1 1 13.214283,0 z" />
    <path
       sodipodi:type="arc"
       style="fill:#00ffff;fill-opacity:0;stroke:none"
       id="path3921"
       sodipodi:cx="95.89286"
       sodipodi:cy="223.70146"
       sodipodi:rx="6.9642859"
       sodipodi:ry="4.7321429"
       d="m 102.85715,223.70146 a 6.9642859,4.7321429 0 1 1 -13.928575,0 6.9642859,4.7321429 0 1 1 13.928575,0 z" />
    <path
       sodipodi:type="arc"
       style="fill:#00ffff;fill-opacity:0;stroke:none"
       id="path3923"
       sodipodi:cx="100.80949"
       sodipodi:cy="212.47469"
       sodipodi:rx="8.4880676"
       sodipodi:ry="7.0767894"
       d="m 109.29755,212.47469 a 8.4880676,7.0767894 0 1 1 -16.976131,0 8.4880676,7.0767894 0 1 1 16.976131,0 z" />
    <path
       sodipodi:type="arc"
       style="fill:#00ffff;fill-opacity:0;stroke:none"
       id="path3925"
       sodipodi:cx="98.202538"
       sodipodi:cy="200.09731"
       sodipodi:rx="7.3096833"
       sodipodi:ry="6.4851232"
       d="m 105.51222,200.09731 a 7.3096833,6.4851232 0 1 1 -14.619366,0 7.3096833,6.4851232 0 1 1 14.619366,0 z" />
    <path
       sodipodi:type="arc"
       style="fill:#00ffff;fill-opacity:0;stroke:none"
       id="path3927"
       sodipodi:cx="101.26765"
       sodipodi:cy="220.18149"
       sodipodi:rx="8.5537825"
       sodipodi:ry="5.5735493"
       d="m 109.82143,220.18149 a 8.5537825,5.5735493 0 1 1 -17.107566,0 8.5537825,5.5735493 0 1 1 17.107566,0 z" />
    <path
       sodipodi:type="arc"
       style="fill:#00ffff;fill-opacity:0;stroke:none"
       id="path3931"
       sodipodi:cx="95.096252"
       sodipodi:cy="217.2829"
       sodipodi:rx="12.41768"
       sodipodi:ry="6.7064338"
       d="m 107.51393,217.2829 a 12.41768,6.7064338 0 1 1 -24.835357,0 12.41768,6.7064338 0 1 1 24.835357,0 z" />
  </g>
</svg>
