<?xml version="1.0"?>
<svg width="1048" height="1694" viewBox="0 0 1048 1694" xmlns="http://www.w3.org/2000/svg" xmlns:svg="http://www.w3.org/2000/svg">
 <g>
  <path d="m524.693054,1694.53894c-38.766052,-190.300049 -107.116089,-348.670044 -189.903076,-495.440063c-61.406982,-108.869995 -132.543945,-209.359924 -198.363953,-314.93988c-21.972038,-35.242981 -40.934006,-72.476013 -62.047005,-109.052979c-42.215981,-73.137024 -76.444001,-157.934998 -74.26899,-267.932068c2.125,-107.473022 33.208008,-193.684021 78.029999,-264.171967c73.718994,-115.93499 197.201004,-210.988983 362.883957,-235.968994c135.466064,-20.424 262.475037,14.081995 352.543091,66.748001c73.596008,43.03801 130.596008,100.526993 173.915955,168.280014c45.219971,70.715973 76.359985,154.259949 78.969971,263.231964c1.340088,55.830139 -7.799927,107.532043 -20.679932,150.418091c-13.030029,43.409058 -33.98999,79.695068 -52.640015,118.453979c-36.410034,75.659058 -82.050049,144.98407 -127.859985,214.343933c-136.437012,206.609924 -264.496033,417.309998 -320.580017,706.029968z" stroke-width="37" stroke-miterlimit="10" fill-rule="evenodd" fill="#c92a2a" clip-rule="evenodd" id="svg_2"/>
  <circle r="183.33299" cy="505.95596" cx="523.29902" fill-rule="evenodd" fill="#ffffff" clip-rule="evenodd" id="svg_4"/>
 </g>
</svg>